<mxfile>
    <diagram id="OqVD7pylArWm8Ce-zkN9" name="Page-1">
        <mxGraphModel dx="3951" dy="1974" grid="0" gridSize="10" guides="1" tooltips="1" connect="1" arrows="1" fold="1" page="0" pageScale="1" pageWidth="3300" pageHeight="4681" background="#ffffff" math="0" shadow="0">
            <root>
                <mxCell id="0"/>
                <mxCell id="1" parent="0"/>
                <mxCell id="6" value="http_server" style="swimlane;fontStyle=1;align=center;verticalAlign=top;childLayout=stackLayout;horizontal=1;startSize=26;horizontalStack=0;resizeParent=1;resizeParentMax=0;resizeLast=0;collapsible=1;marginBottom=0;fillColor=#A8DADC;strokeColor=#457B9D;fontColor=#1D3557;" parent="1" vertex="1">
                    <mxGeometry x="40" y="100" width="280" height="190" as="geometry"/>
                </mxCell>
                <mxCell id="7" value="struct TCPserver *tcpServer" style="text;strokeColor=none;fillColor=none;align=left;verticalAlign=top;spacingLeft=4;spacingRight=4;overflow=hidden;rotatable=0;points=[[0,0.5],[1,0.5]];portConstraint=eastwest;fontColor=#1D3557;" parent="6" vertex="1">
                    <mxGeometry y="26" width="280" height="26" as="geometry"/>
                </mxCell>
                <mxCell id="8" value="" style="line;strokeWidth=1;fillColor=none;align=left;verticalAlign=middle;spacingTop=-1;spacingLeft=3;spacingRight=3;rotatable=0;labelPosition=right;points=[];portConstraint=eastwest;labelBackgroundColor=#F1FAEE;strokeColor=#457B9D;fontColor=#1D3557;" parent="6" vertex="1">
                    <mxGeometry y="52" width="280" height="8" as="geometry"/>
                </mxCell>
                <mxCell id="9" value="request_callback requestCallback&#10;&#10;struct http_server *http_server_new&#10;&#10;http_server_start(struct http_server *httpServer)&#10;&#10;int parse_http_request&#10;" style="text;strokeColor=none;fillColor=none;align=left;verticalAlign=top;spacingLeft=4;spacingRight=4;overflow=hidden;rotatable=0;points=[[0,0.5],[1,0.5]];portConstraint=eastwest;fontColor=#1D3557;" parent="6" vertex="1">
                    <mxGeometry y="60" width="280" height="130" as="geometry"/>
                </mxCell>
                <mxCell id="11" value="http_request&#10;" style="swimlane;fontStyle=1;align=center;verticalAlign=top;childLayout=stackLayout;horizontal=1;startSize=26;horizontalStack=0;resizeParent=1;resizeParentMax=0;resizeLast=0;collapsible=1;marginBottom=0;fillColor=#A8DADC;strokeColor=#457B9D;fontColor=#1D3557;" vertex="1" parent="1">
                    <mxGeometry x="510" y="517" width="300" height="310" as="geometry">
                        <mxRectangle x="510" y="517" width="110" height="26" as="alternateBounds"/>
                    </mxGeometry>
                </mxCell>
                <mxCell id="12" value="    char *version;&#10;    char *method;&#10;    char *url;&#10;    enum http_request_state current_state;&#10;    struct request_header *request_headers;&#10;    int request_headers_number;" style="text;strokeColor=none;fillColor=none;align=left;verticalAlign=top;spacingLeft=4;spacingRight=4;overflow=hidden;rotatable=0;points=[[0,0.5],[1,0.5]];portConstraint=eastwest;fontColor=#1D3557;" vertex="1" parent="11">
                    <mxGeometry y="26" width="300" height="94" as="geometry"/>
                </mxCell>
                <mxCell id="13" value="" style="line;strokeWidth=1;fillColor=none;align=left;verticalAlign=middle;spacingTop=-1;spacingLeft=3;spacingRight=3;rotatable=0;labelPosition=right;points=[];portConstraint=eastwest;labelBackgroundColor=#F1FAEE;strokeColor=#457B9D;fontColor=#1D3557;" vertex="1" parent="11">
                    <mxGeometry y="120" width="300" height="8" as="geometry"/>
                </mxCell>
                <mxCell id="14" value="struct http_request *http_request_new();" style="text;strokeColor=none;fillColor=none;align=left;verticalAlign=top;spacingLeft=4;spacingRight=4;overflow=hidden;rotatable=0;points=[[0,0.5],[1,0.5]];portConstraint=eastwest;fontColor=#1D3557;" vertex="1" parent="11">
                    <mxGeometry y="128" width="300" height="26" as="geometry"/>
                </mxCell>
                <mxCell id="58" value="void http_request_add_header" style="text;strokeColor=none;fillColor=none;align=left;verticalAlign=top;spacingLeft=4;spacingRight=4;overflow=hidden;rotatable=0;points=[[0,0.5],[1,0.5]];portConstraint=eastwest;fontColor=#1D3557;" vertex="1" parent="11">
                    <mxGeometry y="154" width="300" height="26" as="geometry"/>
                </mxCell>
                <mxCell id="59" value="enum http_request_state http_request_current_state" style="text;strokeColor=none;fillColor=none;align=left;verticalAlign=top;spacingLeft=4;spacingRight=4;overflow=hidden;rotatable=0;points=[[0,0.5],[1,0.5]];portConstraint=eastwest;fontColor=#1D3557;" vertex="1" parent="11">
                    <mxGeometry y="180" width="300" height="26" as="geometry"/>
                </mxCell>
                <mxCell id="60" value="char *http_request_get_header" style="text;strokeColor=none;fillColor=none;align=left;verticalAlign=top;spacingLeft=4;spacingRight=4;overflow=hidden;rotatable=0;points=[[0,0.5],[1,0.5]];portConstraint=eastwest;fontColor=#1D3557;" vertex="1" parent="11">
                    <mxGeometry y="206" width="300" height="26" as="geometry"/>
                </mxCell>
                <mxCell id="61" value="int http_request_close_connection" style="text;strokeColor=none;fillColor=none;align=left;verticalAlign=top;spacingLeft=4;spacingRight=4;overflow=hidden;rotatable=0;points=[[0,0.5],[1,0.5]];portConstraint=eastwest;fontColor=#1D3557;" vertex="1" parent="11">
                    <mxGeometry y="232" width="300" height="26" as="geometry"/>
                </mxCell>
                <mxCell id="62" value="void http_request_reset" style="text;strokeColor=none;fillColor=none;align=left;verticalAlign=top;spacingLeft=4;spacingRight=4;overflow=hidden;rotatable=0;points=[[0,0.5],[1,0.5]];portConstraint=eastwest;fontColor=#1D3557;" vertex="1" parent="11">
                    <mxGeometry y="258" width="300" height="26" as="geometry"/>
                </mxCell>
                <mxCell id="63" value="void http_request_clear" style="text;strokeColor=none;fillColor=none;align=left;verticalAlign=top;spacingLeft=4;spacingRight=4;overflow=hidden;rotatable=0;points=[[0,0.5],[1,0.5]];portConstraint=eastwest;fontColor=#1D3557;" vertex="1" parent="11">
                    <mxGeometry y="284" width="300" height="26" as="geometry"/>
                </mxCell>
                <mxCell id="15" value="http_response&#10;" style="swimlane;fontStyle=1;align=center;verticalAlign=top;childLayout=stackLayout;horizontal=1;startSize=26;horizontalStack=0;resizeParent=1;resizeParentMax=0;resizeLast=0;collapsible=1;marginBottom=0;fillColor=#A8DADC;strokeColor=#457B9D;fontColor=#1D3557;" vertex="1" parent="1">
                    <mxGeometry x="530" y="240" width="280" height="200" as="geometry">
                        <mxRectangle x="530" y="240" width="120" height="26" as="alternateBounds"/>
                    </mxGeometry>
                </mxCell>
                <mxCell id="16" value="    enum HttpStatusCode statusCode;&#10;    char *statusMessage;&#10;    char *contentType;&#10;    char *body;&#10;    struct response_header *response_headers;&#10;    int response_headers_number;&#10;    int keep_connected;" style="text;strokeColor=none;fillColor=none;align=left;verticalAlign=top;spacingLeft=4;spacingRight=4;overflow=hidden;rotatable=0;points=[[0,0.5],[1,0.5]];portConstraint=eastwest;fontColor=#1D3557;" vertex="1" parent="15">
                    <mxGeometry y="26" width="280" height="114" as="geometry"/>
                </mxCell>
                <mxCell id="17" value="" style="line;strokeWidth=1;fillColor=none;align=left;verticalAlign=middle;spacingTop=-1;spacingLeft=3;spacingRight=3;rotatable=0;labelPosition=right;points=[];portConstraint=eastwest;labelBackgroundColor=#F1FAEE;strokeColor=#457B9D;fontColor=#1D3557;" vertex="1" parent="15">
                    <mxGeometry y="140" width="280" height="8" as="geometry"/>
                </mxCell>
                <mxCell id="18" value="struct http_response *http_response_new()" style="text;strokeColor=none;fillColor=none;align=left;verticalAlign=top;spacingLeft=4;spacingRight=4;overflow=hidden;rotatable=0;points=[[0,0.5],[1,0.5]];portConstraint=eastwest;fontColor=#1D3557;" vertex="1" parent="15">
                    <mxGeometry y="148" width="280" height="26" as="geometry"/>
                </mxCell>
                <mxCell id="64" value="void http_response_encode_buffer" style="text;strokeColor=none;fillColor=none;align=left;verticalAlign=top;spacingLeft=4;spacingRight=4;overflow=hidden;rotatable=0;points=[[0,0.5],[1,0.5]];portConstraint=eastwest;fontColor=#1D3557;" vertex="1" parent="15">
                    <mxGeometry y="174" width="280" height="26" as="geometry"/>
                </mxCell>
                <mxCell id="19" value="buffer" style="swimlane;fontStyle=1;align=center;verticalAlign=top;childLayout=stackLayout;horizontal=1;startSize=26;horizontalStack=0;resizeParent=1;resizeParentMax=0;resizeLast=0;collapsible=1;marginBottom=0;fillColor=#A8DADC;strokeColor=#457B9D;fontColor=#1D3557;" vertex="1" parent="1">
                    <mxGeometry x="170" y="517" width="230" height="124" as="geometry"/>
                </mxCell>
                <mxCell id="20" value="    char *data;          //实际缓冲&#10;    int readIndex;       //缓冲读取位置&#10;    int writeIndex;      //缓冲写入位置&#10;    int total_size;      //总大小" style="text;strokeColor=none;fillColor=none;align=left;verticalAlign=top;spacingLeft=4;spacingRight=4;overflow=hidden;rotatable=0;points=[[0,0.5],[1,0.5]];portConstraint=eastwest;fontColor=#1D3557;" vertex="1" parent="19">
                    <mxGeometry y="26" width="230" height="64" as="geometry"/>
                </mxCell>
                <mxCell id="21" value="" style="line;strokeWidth=1;fillColor=none;align=left;verticalAlign=middle;spacingTop=-1;spacingLeft=3;spacingRight=3;rotatable=0;labelPosition=right;points=[];portConstraint=eastwest;labelBackgroundColor=#F1FAEE;strokeColor=#457B9D;fontColor=#1D3557;" vertex="1" parent="19">
                    <mxGeometry y="90" width="230" height="8" as="geometry"/>
                </mxCell>
                <mxCell id="22" value="+ method(type): type" style="text;strokeColor=none;fillColor=none;align=left;verticalAlign=top;spacingLeft=4;spacingRight=4;overflow=hidden;rotatable=0;points=[[0,0.5],[1,0.5]];portConstraint=eastwest;fontColor=#1D3557;" vertex="1" parent="19">
                    <mxGeometry y="98" width="230" height="26" as="geometry"/>
                </mxCell>
                <mxCell id="23" value="event_loop" style="swimlane;fontStyle=1;align=center;verticalAlign=top;childLayout=stackLayout;horizontal=1;startSize=26;horizontalStack=0;resizeParent=1;resizeParentMax=0;resizeLast=0;collapsible=1;marginBottom=0;fillColor=#A8DADC;strokeColor=#457B9D;fontColor=#1D3557;" vertex="1" parent="1">
                    <mxGeometry x="-170" y="-600" width="280" height="270" as="geometry"/>
                </mxCell>
                <mxCell id="24" value="    int quit;&#10;    const struct event_dispatcher *eventDispatcher;&#10;    void *event_dispatcher_data;&#10;    struct channel_map *channelMap;&#10;    int is_handle_pending;&#10;    struct channel_element *pending_head;&#10;    struct channel_element *pending_tail;&#10;    pthread_t owner_thread_id;&#10;    pthread_mutex_t mutex;&#10;    pthread_cond_t cond;&#10;    int socketPair[2];&#10;    char *thread_name;" style="text;strokeColor=none;fillColor=none;align=left;verticalAlign=top;spacingLeft=4;spacingRight=4;overflow=hidden;rotatable=0;points=[[0,0.5],[1,0.5]];portConstraint=eastwest;fontColor=#1D3557;" vertex="1" parent="23">
                    <mxGeometry y="26" width="280" height="184" as="geometry"/>
                </mxCell>
                <mxCell id="25" value="" style="line;strokeWidth=1;fillColor=none;align=left;verticalAlign=middle;spacingTop=-1;spacingLeft=3;spacingRight=3;rotatable=0;labelPosition=right;points=[];portConstraint=eastwest;labelBackgroundColor=#F1FAEE;strokeColor=#457B9D;fontColor=#1D3557;" vertex="1" parent="23">
                    <mxGeometry y="210" width="280" height="8" as="geometry"/>
                </mxCell>
                <mxCell id="26" value="struct event_loop *event_loop_init()" style="text;strokeColor=none;fillColor=none;align=left;verticalAlign=top;spacingLeft=4;spacingRight=4;overflow=hidden;rotatable=0;points=[[0,0.5],[1,0.5]];portConstraint=eastwest;fontColor=#1D3557;" vertex="1" parent="23">
                    <mxGeometry y="218" width="280" height="26" as="geometry"/>
                </mxCell>
                <mxCell id="76" value="int event_loop_run" style="text;strokeColor=none;fillColor=none;align=left;verticalAlign=top;spacingLeft=4;spacingRight=4;overflow=hidden;rotatable=0;points=[[0,0.5],[1,0.5]];portConstraint=eastwest;fontColor=#1D3557;" vertex="1" parent="23">
                    <mxGeometry y="244" width="280" height="26" as="geometry"/>
                </mxCell>
                <mxCell id="27" value="TCPserver&#10;" style="swimlane;fontStyle=1;align=center;verticalAlign=top;childLayout=stackLayout;horizontal=1;startSize=26;horizontalStack=0;resizeParent=1;resizeParentMax=0;resizeLast=0;collapsible=1;marginBottom=0;fillColor=#A8DADC;strokeColor=#457B9D;fontColor=#1D3557;" vertex="1" parent="1">
                    <mxGeometry x="-430" y="143" width="380" height="240" as="geometry"/>
                </mxCell>
                <mxCell id="28" value="    int port;&#10;    struct event_loop *eventLoop;&#10;    struct acceptor *acceptor;&#10;    connection_completed_call_back connectionCompletedCallBack;&#10;    message_call_back messageCallBack;&#10;    write_completed_call_back writeCompletedCallBack;&#10;    connection_closed_call_back connectionClosedCallBack;&#10;    int threadNum;&#10;    struct thread_pool *threadPool;&#10;    void * data; //for callback use: http_server" style="text;strokeColor=none;fillColor=none;align=left;verticalAlign=top;spacingLeft=4;spacingRight=4;overflow=hidden;rotatable=0;points=[[0,0.5],[1,0.5]];portConstraint=eastwest;fontColor=#1D3557;" vertex="1" parent="27">
                    <mxGeometry y="26" width="380" height="154" as="geometry"/>
                </mxCell>
                <mxCell id="29" value="" style="line;strokeWidth=1;fillColor=none;align=left;verticalAlign=middle;spacingTop=-1;spacingLeft=3;spacingRight=3;rotatable=0;labelPosition=right;points=[];portConstraint=eastwest;labelBackgroundColor=#F1FAEE;strokeColor=#457B9D;fontColor=#1D3557;" vertex="1" parent="27">
                    <mxGeometry y="180" width="380" height="8" as="geometry"/>
                </mxCell>
                <mxCell id="30" value="struct TCPserver * tcp_server_init" style="text;strokeColor=none;fillColor=none;align=left;verticalAlign=top;spacingLeft=4;spacingRight=4;overflow=hidden;rotatable=0;points=[[0,0.5],[1,0.5]];portConstraint=eastwest;fontColor=#1D3557;" vertex="1" parent="27">
                    <mxGeometry y="188" width="380" height="26" as="geometry"/>
                </mxCell>
                <mxCell id="121" value="void tcp_server_start" style="text;strokeColor=none;fillColor=none;align=left;verticalAlign=top;spacingLeft=4;spacingRight=4;overflow=hidden;rotatable=0;points=[[0,0.5],[1,0.5]];portConstraint=eastwest;fontColor=#1D3557;" vertex="1" parent="27">
                    <mxGeometry y="214" width="380" height="26" as="geometry"/>
                </mxCell>
                <mxCell id="33" value="" style="endArrow=diamondThin;endFill=1;endSize=24;html=1;entryX=0;entryY=0.357;entryDx=0;entryDy=0;entryPerimeter=0;exitX=1;exitY=0.5;exitDx=0;exitDy=0;labelBackgroundColor=#F1FAEE;strokeColor=#457B9D;fontColor=#1D3557;" edge="1" parent="1" source="28" target="9">
                    <mxGeometry width="160" relative="1" as="geometry">
                        <mxPoint x="190" y="560" as="sourcePoint"/>
                        <mxPoint x="350" y="560" as="targetPoint"/>
                    </mxGeometry>
                </mxCell>
                <mxCell id="35" value="Use" style="endArrow=open;endSize=12;dashed=1;html=1;entryX=0.5;entryY=0;entryDx=0;entryDy=0;exitX=1.002;exitY=0.725;exitDx=0;exitDy=0;exitPerimeter=0;labelBackgroundColor=#F1FAEE;strokeColor=#457B9D;fontColor=#1D3557;" edge="1" parent="1" source="9" target="19">
                    <mxGeometry width="160" relative="1" as="geometry">
                        <mxPoint x="330" y="190" as="sourcePoint"/>
                        <mxPoint x="430" y="189.44444444444434" as="targetPoint"/>
                    </mxGeometry>
                </mxCell>
                <mxCell id="36" value="Use" style="endArrow=open;endSize=12;dashed=1;html=1;entryX=0;entryY=0.5;entryDx=0;entryDy=0;exitX=1.004;exitY=0.388;exitDx=0;exitDy=0;exitPerimeter=0;labelBackgroundColor=#F1FAEE;strokeColor=#457B9D;fontColor=#1D3557;" edge="1" parent="1" source="9" target="16">
                    <mxGeometry width="160" relative="1" as="geometry">
                        <mxPoint x="340" y="200" as="sourcePoint"/>
                        <mxPoint x="440" y="199.44444444444434" as="targetPoint"/>
                    </mxGeometry>
                </mxCell>
                <mxCell id="37" value="Use" style="endArrow=open;endSize=12;dashed=1;html=1;entryX=0;entryY=0.5;entryDx=0;entryDy=0;exitX=1;exitY=0.5;exitDx=0;exitDy=0;labelBackgroundColor=#F1FAEE;strokeColor=#457B9D;fontColor=#1D3557;" edge="1" parent="1" source="9" target="12">
                    <mxGeometry width="160" relative="1" as="geometry">
                        <mxPoint x="350" y="210" as="sourcePoint"/>
                        <mxPoint x="450" y="209.44444444444434" as="targetPoint"/>
                    </mxGeometry>
                </mxCell>
                <mxCell id="46" value="" style="endArrow=diamondThin;endFill=1;endSize=24;html=1;entryX=1;entryY=0.5;entryDx=0;entryDy=0;exitX=-0.013;exitY=0.262;exitDx=0;exitDy=0;exitPerimeter=0;labelBackgroundColor=#F1FAEE;strokeColor=#457B9D;fontColor=#1D3557;" edge="1" parent="1" source="54" target="12">
                    <mxGeometry width="160" relative="1" as="geometry">
                        <mxPoint x="790" y="648.1679999999999" as="sourcePoint"/>
                        <mxPoint x="820" y="1027" as="targetPoint"/>
                    </mxGeometry>
                </mxCell>
                <mxCell id="47" value="" style="endArrow=diamondThin;endFill=1;endSize=24;html=1;entryX=1.002;entryY=0.843;entryDx=0;entryDy=0;exitX=0;exitY=0.5;exitDx=0;exitDy=0;entryPerimeter=0;labelBackgroundColor=#F1FAEE;strokeColor=#457B9D;fontColor=#1D3557;" edge="1" parent="1" source="49" target="12">
                    <mxGeometry width="160" relative="1" as="geometry">
                        <mxPoint x="790" y="740" as="sourcePoint"/>
                        <mxPoint x="710" y="660" as="targetPoint"/>
                    </mxGeometry>
                </mxCell>
                <mxCell id="48" value="request_header" style="swimlane;fontStyle=0;childLayout=stackLayout;horizontal=1;startSize=26;fillColor=none;horizontalStack=0;resizeParent=1;resizeParentMax=0;resizeLast=0;collapsible=1;marginBottom=0;strokeColor=#457B9D;fontColor=#1D3557;" vertex="1" parent="1">
                    <mxGeometry x="910" y="735" width="140" height="78" as="geometry"/>
                </mxCell>
                <mxCell id="49" value="char *key;" style="text;strokeColor=none;fillColor=none;align=left;verticalAlign=top;spacingLeft=4;spacingRight=4;overflow=hidden;rotatable=0;points=[[0,0.5],[1,0.5]];portConstraint=eastwest;fontColor=#1D3557;" vertex="1" parent="48">
                    <mxGeometry y="26" width="140" height="26" as="geometry"/>
                </mxCell>
                <mxCell id="51" value="char *value;" style="text;strokeColor=none;fillColor=none;align=left;verticalAlign=top;spacingLeft=4;spacingRight=4;overflow=hidden;rotatable=0;points=[[0,0.5],[1,0.5]];portConstraint=eastwest;fontColor=#1D3557;" vertex="1" parent="48">
                    <mxGeometry y="52" width="140" height="26" as="geometry"/>
                </mxCell>
                <mxCell id="52" value="http_request_state" style="swimlane;fontStyle=0;childLayout=stackLayout;horizontal=1;startSize=26;fillColor=none;horizontalStack=0;resizeParent=1;resizeParentMax=0;resizeLast=0;collapsible=1;marginBottom=0;strokeColor=#457B9D;fontColor=#1D3557;" vertex="1" parent="1">
                    <mxGeometry x="910" y="557" width="140" height="130" as="geometry"/>
                </mxCell>
                <mxCell id="53" value="REQUEST_STATUS" style="text;strokeColor=none;fillColor=none;align=left;verticalAlign=top;spacingLeft=4;spacingRight=4;overflow=hidden;rotatable=0;points=[[0,0.5],[1,0.5]];portConstraint=eastwest;fontColor=#1D3557;" vertex="1" parent="52">
                    <mxGeometry y="26" width="140" height="26" as="geometry"/>
                </mxCell>
                <mxCell id="54" value="REQUEST_HEADERS" style="text;strokeColor=none;fillColor=none;align=left;verticalAlign=top;spacingLeft=4;spacingRight=4;overflow=hidden;rotatable=0;points=[[0,0.5],[1,0.5]];portConstraint=eastwest;fontColor=#1D3557;" vertex="1" parent="52">
                    <mxGeometry y="52" width="140" height="26" as="geometry"/>
                </mxCell>
                <mxCell id="57" value="REQUEST_BODY" style="text;strokeColor=none;fillColor=none;align=left;verticalAlign=top;spacingLeft=4;spacingRight=4;overflow=hidden;rotatable=0;points=[[0,0.5],[1,0.5]];portConstraint=eastwest;fontColor=#1D3557;" vertex="1" parent="52">
                    <mxGeometry y="78" width="140" height="26" as="geometry"/>
                </mxCell>
                <mxCell id="56" value="REQUEST_DONE" style="text;strokeColor=none;fillColor=none;align=left;verticalAlign=top;spacingLeft=4;spacingRight=4;overflow=hidden;rotatable=0;points=[[0,0.5],[1,0.5]];portConstraint=eastwest;fontColor=#1D3557;" vertex="1" parent="52">
                    <mxGeometry y="104" width="140" height="26" as="geometry"/>
                </mxCell>
                <mxCell id="65" value="response_header" style="swimlane;fontStyle=0;childLayout=stackLayout;horizontal=1;startSize=26;fillColor=none;horizontalStack=0;resizeParent=1;resizeParentMax=0;resizeLast=0;collapsible=1;marginBottom=0;strokeColor=#457B9D;fontColor=#1D3557;" vertex="1" collapsed="1" parent="1">
                    <mxGeometry x="910" y="390" width="130" height="26" as="geometry">
                        <mxRectangle x="910" y="390" width="140" height="78" as="alternateBounds"/>
                    </mxGeometry>
                </mxCell>
                <mxCell id="66" value="char *key;" style="text;strokeColor=none;fillColor=none;align=left;verticalAlign=top;spacingLeft=4;spacingRight=4;overflow=hidden;rotatable=0;points=[[0,0.5],[1,0.5]];portConstraint=eastwest;fontColor=#1D3557;" vertex="1" parent="65">
                    <mxGeometry y="26" width="130" height="26" as="geometry"/>
                </mxCell>
                <mxCell id="67" value="char *value;" style="text;strokeColor=none;fillColor=none;align=left;verticalAlign=top;spacingLeft=4;spacingRight=4;overflow=hidden;rotatable=0;points=[[0,0.5],[1,0.5]];portConstraint=eastwest;fontColor=#1D3557;" vertex="1" parent="65">
                    <mxGeometry y="52" width="130" height="26" as="geometry"/>
                </mxCell>
                <mxCell id="68" value="HttpStatusCode" style="swimlane;fontStyle=0;childLayout=stackLayout;horizontal=1;startSize=26;fillColor=none;horizontalStack=0;resizeParent=1;resizeParentMax=0;resizeLast=0;collapsible=1;marginBottom=0;strokeColor=#457B9D;fontColor=#1D3557;" vertex="1" collapsed="1" parent="1">
                    <mxGeometry x="910" y="250" width="120" height="26" as="geometry">
                        <mxRectangle x="920" y="210" width="140" height="156" as="alternateBounds"/>
                    </mxGeometry>
                </mxCell>
                <mxCell id="69" value="Unknown" style="text;strokeColor=none;fillColor=none;align=left;verticalAlign=top;spacingLeft=4;spacingRight=4;overflow=hidden;rotatable=0;points=[[0,0.5],[1,0.5]];portConstraint=eastwest;fontColor=#1D3557;" vertex="1" parent="68">
                    <mxGeometry y="26" width="120" height="26" as="geometry"/>
                </mxCell>
                <mxCell id="70" value="OK" style="text;strokeColor=none;fillColor=none;align=left;verticalAlign=top;spacingLeft=4;spacingRight=4;overflow=hidden;rotatable=0;points=[[0,0.5],[1,0.5]];portConstraint=eastwest;fontColor=#1D3557;" vertex="1" parent="68">
                    <mxGeometry y="52" width="120" height="26" as="geometry"/>
                </mxCell>
                <mxCell id="71" value="MovedPermanently" style="text;strokeColor=none;fillColor=none;align=left;verticalAlign=top;spacingLeft=4;spacingRight=4;overflow=hidden;rotatable=0;points=[[0,0.5],[1,0.5]];portConstraint=eastwest;fontColor=#1D3557;" vertex="1" parent="68">
                    <mxGeometry y="78" width="120" height="26" as="geometry"/>
                </mxCell>
                <mxCell id="73" value="BadRequest" style="text;strokeColor=none;fillColor=none;align=left;verticalAlign=top;spacingLeft=4;spacingRight=4;overflow=hidden;rotatable=0;points=[[0,0.5],[1,0.5]];portConstraint=eastwest;fontColor=#1D3557;" vertex="1" parent="68">
                    <mxGeometry y="104" width="120" height="26" as="geometry"/>
                </mxCell>
                <mxCell id="72" value="NotFound" style="text;strokeColor=none;fillColor=none;align=left;verticalAlign=top;spacingLeft=4;spacingRight=4;overflow=hidden;rotatable=0;points=[[0,0.5],[1,0.5]];portConstraint=eastwest;fontColor=#1D3557;" vertex="1" parent="68">
                    <mxGeometry y="130" width="120" height="26" as="geometry"/>
                </mxCell>
                <mxCell id="74" value="" style="endArrow=diamondThin;endFill=1;endSize=24;html=1;entryX=1.001;entryY=0.591;entryDx=0;entryDy=0;exitX=0;exitY=0.5;exitDx=0;exitDy=0;entryPerimeter=0;labelBackgroundColor=#F1FAEE;strokeColor=#457B9D;fontColor=#1D3557;" edge="1" parent="1" source="71" target="16">
                    <mxGeometry width="160" relative="1" as="geometry">
                        <mxPoint x="918.1800000000001" y="625.8119999999999" as="sourcePoint"/>
                        <mxPoint x="630" y="540" as="targetPoint"/>
                    </mxGeometry>
                </mxCell>
                <mxCell id="75" value="" style="endArrow=diamondThin;endFill=1;endSize=24;html=1;entryX=1.003;entryY=0.897;entryDx=0;entryDy=0;exitX=0;exitY=0.5;exitDx=0;exitDy=0;entryPerimeter=0;labelBackgroundColor=#F1FAEE;strokeColor=#457B9D;fontColor=#1D3557;" edge="1" parent="1" source="66" target="16">
                    <mxGeometry width="160" relative="1" as="geometry">
                        <mxPoint x="910" y="311" as="sourcePoint"/>
                        <mxPoint x="820.28" y="343.374" as="targetPoint"/>
                    </mxGeometry>
                </mxCell>
                <mxCell id="77" value="channel_element" style="swimlane;fontStyle=0;childLayout=stackLayout;horizontal=1;startSize=26;fillColor=none;horizontalStack=0;resizeParent=1;resizeParentMax=0;resizeLast=0;collapsible=1;marginBottom=0;strokeColor=#457B9D;fontColor=#1D3557;" vertex="1" parent="1">
                    <mxGeometry x="890" y="-330" width="180" height="104" as="geometry"/>
                </mxCell>
                <mxCell id="78" value="int type" style="text;strokeColor=none;fillColor=none;align=left;verticalAlign=top;spacingLeft=4;spacingRight=4;overflow=hidden;rotatable=0;points=[[0,0.5],[1,0.5]];portConstraint=eastwest;fontColor=#1D3557;" vertex="1" parent="77">
                    <mxGeometry y="26" width="180" height="26" as="geometry"/>
                </mxCell>
                <mxCell id="79" value="struct channel *channel" style="text;strokeColor=none;fillColor=none;align=left;verticalAlign=top;spacingLeft=4;spacingRight=4;overflow=hidden;rotatable=0;points=[[0,0.5],[1,0.5]];portConstraint=eastwest;fontColor=#1D3557;" vertex="1" parent="77">
                    <mxGeometry y="52" width="180" height="26" as="geometry"/>
                </mxCell>
                <mxCell id="80" value="struct channel_element * next" style="text;strokeColor=none;fillColor=none;align=left;verticalAlign=top;spacingLeft=4;spacingRight=4;overflow=hidden;rotatable=0;points=[[0,0.5],[1,0.5]];portConstraint=eastwest;fontColor=#1D3557;" vertex="1" parent="77">
                    <mxGeometry y="78" width="180" height="26" as="geometry"/>
                </mxCell>
                <mxCell id="81" value="event_dispatcher" style="swimlane;fontStyle=0;childLayout=stackLayout;horizontal=1;startSize=26;fillColor=none;horizontalStack=0;resizeParent=1;resizeParentMax=0;resizeLast=0;collapsible=1;marginBottom=0;strokeColor=#457B9D;fontColor=#1D3557;" vertex="1" parent="1">
                    <mxGeometry x="830" y="-600" width="420" height="208" as="geometry"/>
                </mxCell>
                <mxCell id="82" value="const char *name" style="text;strokeColor=none;fillColor=none;align=left;verticalAlign=top;spacingLeft=4;spacingRight=4;overflow=hidden;rotatable=0;points=[[0,0.5],[1,0.5]];portConstraint=eastwest;fontColor=#1D3557;" vertex="1" parent="81">
                    <mxGeometry y="26" width="420" height="26" as="geometry"/>
                </mxCell>
                <mxCell id="83" value="void* (*init)(struct event_loop * eventLoop)" style="text;strokeColor=none;fillColor=none;align=left;verticalAlign=top;spacingLeft=4;spacingRight=4;overflow=hidden;rotatable=0;points=[[0,0.5],[1,0.5]];portConstraint=eastwest;fontColor=#1D3557;" vertex="1" parent="81">
                    <mxGeometry y="52" width="420" height="26" as="geometry"/>
                </mxCell>
                <mxCell id="95" value="int (*add)(struct event_loop * eventLoop, struct channel * channel)" style="text;strokeColor=none;fillColor=none;align=left;verticalAlign=top;spacingLeft=4;spacingRight=4;overflow=hidden;rotatable=0;points=[[0,0.5],[1,0.5]];portConstraint=eastwest;fontColor=#1D3557;" vertex="1" parent="81">
                    <mxGeometry y="78" width="420" height="26" as="geometry"/>
                </mxCell>
                <mxCell id="96" value="int (*del)(struct event_loop* eventLoop, struct channel * channel)" style="text;strokeColor=none;fillColor=none;align=left;verticalAlign=top;spacingLeft=4;spacingRight=4;overflow=hidden;rotatable=0;points=[[0,0.5],[1,0.5]];portConstraint=eastwest;fontColor=#1D3557;" vertex="1" parent="81">
                    <mxGeometry y="104" width="420" height="26" as="geometry"/>
                </mxCell>
                <mxCell id="97" value="int (*update)(struct event_loop * eventLoop, struct channel * channel)" style="text;strokeColor=none;fillColor=none;align=left;verticalAlign=top;spacingLeft=4;spacingRight=4;overflow=hidden;rotatable=0;points=[[0,0.5],[1,0.5]];portConstraint=eastwest;fontColor=#1D3557;" vertex="1" parent="81">
                    <mxGeometry y="130" width="420" height="26" as="geometry"/>
                </mxCell>
                <mxCell id="98" value="int (*dispatch)(struct event_loop * eventLoop, struct timeval *)" style="text;strokeColor=none;fillColor=none;align=left;verticalAlign=top;spacingLeft=4;spacingRight=4;overflow=hidden;rotatable=0;points=[[0,0.5],[1,0.5]];portConstraint=eastwest;fontColor=#1D3557;" vertex="1" parent="81">
                    <mxGeometry y="156" width="420" height="26" as="geometry"/>
                </mxCell>
                <mxCell id="84" value="void (*clear)(struct event_loop * eventLoop)" style="text;strokeColor=none;fillColor=none;align=left;verticalAlign=top;spacingLeft=4;spacingRight=4;overflow=hidden;rotatable=0;points=[[0,0.5],[1,0.5]];portConstraint=eastwest;fontColor=#1D3557;" vertex="1" parent="81">
                    <mxGeometry y="182" width="420" height="26" as="geometry"/>
                </mxCell>
                <mxCell id="94" value="" style="endArrow=diamondThin;endFill=1;endSize=24;html=1;entryX=1.006;entryY=0.087;entryDx=0;entryDy=0;exitX=0;exitY=0.5;exitDx=0;exitDy=0;entryPerimeter=0;labelBackgroundColor=#F1FAEE;strokeColor=#457B9D;fontColor=#1D3557;" edge="1" parent="1" source="83" target="24">
                    <mxGeometry width="160" relative="1" as="geometry">
                        <mxPoint x="915" y="233" as="sourcePoint"/>
                        <mxPoint x="660.1199999999999" y="265.366" as="targetPoint"/>
                    </mxGeometry>
                </mxCell>
                <mxCell id="99" value="channel_map" style="swimlane;fontStyle=1;align=center;verticalAlign=top;childLayout=stackLayout;horizontal=1;startSize=26;horizontalStack=0;resizeParent=1;resizeParentMax=0;resizeLast=0;collapsible=1;marginBottom=0;fillColor=#A8DADC;strokeColor=#457B9D;fontColor=#1D3557;" vertex="1" parent="1">
                    <mxGeometry x="930" y="-186" width="160" height="138" as="geometry"/>
                </mxCell>
                <mxCell id="103" value="void **entries" style="text;strokeColor=none;fillColor=none;align=left;verticalAlign=top;spacingLeft=4;spacingRight=4;overflow=hidden;rotatable=0;points=[[0,0.5],[1,0.5]];portConstraint=eastwest;fontColor=#1D3557;" vertex="1" parent="99">
                    <mxGeometry y="26" width="160" height="26" as="geometry"/>
                </mxCell>
                <mxCell id="100" value="int nentries" style="text;strokeColor=none;fillColor=none;align=left;verticalAlign=top;spacingLeft=4;spacingRight=4;overflow=hidden;rotatable=0;points=[[0,0.5],[1,0.5]];portConstraint=eastwest;fontColor=#1D3557;" vertex="1" parent="99">
                    <mxGeometry y="52" width="160" height="26" as="geometry"/>
                </mxCell>
                <mxCell id="101" value="" style="line;strokeWidth=1;fillColor=none;align=left;verticalAlign=middle;spacingTop=-1;spacingLeft=3;spacingRight=3;rotatable=0;labelPosition=right;points=[];portConstraint=eastwest;labelBackgroundColor=#F1FAEE;strokeColor=#457B9D;fontColor=#1D3557;" vertex="1" parent="99">
                    <mxGeometry y="78" width="160" height="8" as="geometry"/>
                </mxCell>
                <mxCell id="102" value="void map_init" style="text;strokeColor=none;fillColor=none;align=left;verticalAlign=top;spacingLeft=4;spacingRight=4;overflow=hidden;rotatable=0;points=[[0,0.5],[1,0.5]];portConstraint=eastwest;fontColor=#1D3557;" vertex="1" parent="99">
                    <mxGeometry y="86" width="160" height="26" as="geometry"/>
                </mxCell>
                <mxCell id="104" value="int map_make_space" style="text;strokeColor=none;fillColor=none;align=left;verticalAlign=top;spacingLeft=4;spacingRight=4;overflow=hidden;rotatable=0;points=[[0,0.5],[1,0.5]];portConstraint=eastwest;fontColor=#1D3557;" vertex="1" parent="99">
                    <mxGeometry y="112" width="160" height="26" as="geometry"/>
                </mxCell>
                <mxCell id="105" value="" style="endArrow=diamondThin;endFill=1;endSize=24;html=1;entryX=1;entryY=0.5;entryDx=0;entryDy=0;exitX=0;exitY=0.5;exitDx=0;exitDy=0;labelBackgroundColor=#F1FAEE;strokeColor=#457B9D;fontColor=#1D3557;" edge="1" parent="1" source="100" target="24">
                    <mxGeometry width="160" relative="1" as="geometry">
                        <mxPoint x="915" y="233" as="sourcePoint"/>
                        <mxPoint x="660.1199999999999" y="265.366" as="targetPoint"/>
                    </mxGeometry>
                </mxCell>
                <mxCell id="107" value="" style="endArrow=diamondThin;endFill=1;endSize=24;html=1;entryX=1.004;entryY=0.199;entryDx=0;entryDy=0;exitX=0;exitY=0.5;exitDx=0;exitDy=0;entryPerimeter=0;labelBackgroundColor=#F1FAEE;strokeColor=#457B9D;fontColor=#1D3557;" edge="1" parent="1" source="78" target="24">
                    <mxGeometry width="160" relative="1" as="geometry">
                        <mxPoint x="940" y="-111" as="sourcePoint"/>
                        <mxPoint x="770" y="-42" as="targetPoint"/>
                    </mxGeometry>
                </mxCell>
                <mxCell id="108" value="Use" style="endArrow=open;endSize=12;dashed=1;html=1;entryX=-0.007;entryY=0.086;entryDx=0;entryDy=0;exitX=1.021;exitY=0.766;exitDx=0;exitDy=0;exitPerimeter=0;entryPerimeter=0;labelBackgroundColor=#F1FAEE;strokeColor=#457B9D;fontColor=#1D3557;" edge="1" parent="1" source="24" target="109">
                    <mxGeometry width="160" relative="1" as="geometry">
                        <mxPoint x="331.1199999999999" y="220.4399999999996" as="sourcePoint"/>
                        <mxPoint x="540" y="263" as="targetPoint"/>
                    </mxGeometry>
                </mxCell>
                <mxCell id="109" value="channel" style="swimlane;fontStyle=1;align=center;verticalAlign=top;childLayout=stackLayout;horizontal=1;startSize=26;horizontalStack=0;resizeParent=1;resizeParentMax=0;resizeLast=0;collapsible=1;marginBottom=0;fillColor=#A8DADC;strokeColor=#457B9D;fontColor=#1D3557;" vertex="1" parent="1">
                    <mxGeometry x="1080" width="240" height="268" as="geometry"/>
                </mxCell>
                <mxCell id="110" value="int fd;" style="text;strokeColor=none;fillColor=none;align=left;verticalAlign=top;spacingLeft=4;spacingRight=4;overflow=hidden;rotatable=0;points=[[0,0.5],[1,0.5]];portConstraint=eastwest;fontColor=#1D3557;" vertex="1" parent="109">
                    <mxGeometry y="26" width="240" height="26" as="geometry"/>
                </mxCell>
                <mxCell id="115" value="int events;" style="text;strokeColor=none;fillColor=none;align=left;verticalAlign=top;spacingLeft=4;spacingRight=4;overflow=hidden;rotatable=0;points=[[0,0.5],[1,0.5]];portConstraint=eastwest;fontColor=#1D3557;" vertex="1" parent="109">
                    <mxGeometry y="52" width="240" height="26" as="geometry"/>
                </mxCell>
                <mxCell id="116" value="event_read_callback eventReadCallback;" style="text;strokeColor=none;fillColor=none;align=left;verticalAlign=top;spacingLeft=4;spacingRight=4;overflow=hidden;rotatable=0;points=[[0,0.5],[1,0.5]];portConstraint=eastwest;fontColor=#1D3557;" vertex="1" parent="109">
                    <mxGeometry y="78" width="240" height="26" as="geometry"/>
                </mxCell>
                <mxCell id="113" value="event_write_callback  eventWriteCallback;" style="text;strokeColor=none;fillColor=none;align=left;verticalAlign=top;spacingLeft=4;spacingRight=4;overflow=hidden;rotatable=0;points=[[0,0.5],[1,0.5]];portConstraint=eastwest;fontColor=#1D3557;" vertex="1" parent="109">
                    <mxGeometry y="104" width="240" height="26" as="geometry"/>
                </mxCell>
                <mxCell id="114" value="void * data;" style="text;strokeColor=none;fillColor=none;align=left;verticalAlign=top;spacingLeft=4;spacingRight=4;overflow=hidden;rotatable=0;points=[[0,0.5],[1,0.5]];portConstraint=eastwest;fontColor=#1D3557;" vertex="1" parent="109">
                    <mxGeometry y="130" width="240" height="26" as="geometry"/>
                </mxCell>
                <mxCell id="111" value="" style="line;strokeWidth=1;fillColor=none;align=left;verticalAlign=middle;spacingTop=-1;spacingLeft=3;spacingRight=3;rotatable=0;labelPosition=right;points=[];portConstraint=eastwest;labelBackgroundColor=#F1FAEE;strokeColor=#457B9D;fontColor=#1D3557;" vertex="1" parent="109">
                    <mxGeometry y="156" width="240" height="8" as="geometry"/>
                </mxCell>
                <mxCell id="112" value="struct channel * channel_new" style="text;strokeColor=none;fillColor=none;align=left;verticalAlign=top;spacingLeft=4;spacingRight=4;overflow=hidden;rotatable=0;points=[[0,0.5],[1,0.5]];portConstraint=eastwest;fontColor=#1D3557;" vertex="1" parent="109">
                    <mxGeometry y="164" width="240" height="26" as="geometry"/>
                </mxCell>
                <mxCell id="119" value="int channel_write_event_is_enabled" style="text;strokeColor=none;fillColor=none;align=left;verticalAlign=top;spacingLeft=4;spacingRight=4;overflow=hidden;rotatable=0;points=[[0,0.5],[1,0.5]];portConstraint=eastwest;fontColor=#1D3557;" vertex="1" parent="109">
                    <mxGeometry y="190" width="240" height="26" as="geometry"/>
                </mxCell>
                <mxCell id="120" value="int channel_write_event_enable" style="text;strokeColor=none;fillColor=none;align=left;verticalAlign=top;spacingLeft=4;spacingRight=4;overflow=hidden;rotatable=0;points=[[0,0.5],[1,0.5]];portConstraint=eastwest;fontColor=#1D3557;" vertex="1" parent="109">
                    <mxGeometry y="216" width="240" height="26" as="geometry"/>
                </mxCell>
                <mxCell id="118" value="int channel_write_event_disable" style="text;strokeColor=none;fillColor=none;align=left;verticalAlign=top;spacingLeft=4;spacingRight=4;overflow=hidden;rotatable=0;points=[[0,0.5],[1,0.5]];portConstraint=eastwest;fontColor=#1D3557;" vertex="1" parent="109">
                    <mxGeometry y="242" width="240" height="26" as="geometry"/>
                </mxCell>
                <mxCell id="122" value="Use" style="endArrow=open;endSize=12;dashed=1;html=1;entryX=-0.01;entryY=0.213;entryDx=0;entryDy=0;exitX=0.21;exitY=-0.008;exitDx=0;exitDy=0;exitPerimeter=0;entryPerimeter=0;labelBackgroundColor=#F1FAEE;strokeColor=#457B9D;fontColor=#1D3557;" edge="1" parent="1" source="27" target="24">
                    <mxGeometry width="160" relative="1" as="geometry">
                        <mxPoint x="330" y="190" as="sourcePoint"/>
                        <mxPoint x="490" y="-42.00000000000091" as="targetPoint"/>
                    </mxGeometry>
                </mxCell>
                <mxCell id="132" value="acceptor" style="swimlane;fontStyle=1;align=center;verticalAlign=top;childLayout=stackLayout;horizontal=1;startSize=26;horizontalStack=0;resizeParent=1;resizeParentMax=0;resizeLast=0;collapsible=1;marginBottom=0;fillColor=#A8DADC;strokeColor=#457B9D;fontColor=#1D3557;" vertex="1" parent="1">
                    <mxGeometry x="-710" y="440" width="220" height="112" as="geometry"/>
                </mxCell>
                <mxCell id="133" value="int listen_port" style="text;strokeColor=none;fillColor=none;align=left;verticalAlign=top;spacingLeft=4;spacingRight=4;overflow=hidden;rotatable=0;points=[[0,0.5],[1,0.5]];portConstraint=eastwest;fontColor=#1D3557;" vertex="1" parent="132">
                    <mxGeometry y="26" width="220" height="26" as="geometry"/>
                </mxCell>
                <mxCell id="136" value="int listen_fd" style="text;strokeColor=none;fillColor=none;align=left;verticalAlign=top;spacingLeft=4;spacingRight=4;overflow=hidden;rotatable=0;points=[[0,0.5],[1,0.5]];portConstraint=eastwest;fontColor=#1D3557;" vertex="1" parent="132">
                    <mxGeometry y="52" width="220" height="26" as="geometry"/>
                </mxCell>
                <mxCell id="134" value="" style="line;strokeWidth=1;fillColor=none;align=left;verticalAlign=middle;spacingTop=-1;spacingLeft=3;spacingRight=3;rotatable=0;labelPosition=right;points=[];portConstraint=eastwest;labelBackgroundColor=#F1FAEE;strokeColor=#457B9D;fontColor=#1D3557;" vertex="1" parent="132">
                    <mxGeometry y="78" width="220" height="8" as="geometry"/>
                </mxCell>
                <mxCell id="135" value="struct acceptor *acceptor_init(int port)" style="text;strokeColor=none;fillColor=none;align=left;verticalAlign=top;spacingLeft=4;spacingRight=4;overflow=hidden;rotatable=0;points=[[0,0.5],[1,0.5]];portConstraint=eastwest;fontColor=#1D3557;" vertex="1" parent="132">
                    <mxGeometry y="86" width="220" height="26" as="geometry"/>
                </mxCell>
                <mxCell id="137" value="thread_pool" style="swimlane;fontStyle=1;align=center;verticalAlign=top;childLayout=stackLayout;horizontal=1;startSize=26;horizontalStack=0;resizeParent=1;resizeParentMax=0;resizeLast=0;collapsible=1;marginBottom=0;fillColor=#A8DADC;strokeColor=#457B9D;fontColor=#1D3557;" vertex="1" parent="1">
                    <mxGeometry x="-860" y="120" width="280" height="242" as="geometry"/>
                </mxCell>
                <mxCell id="138" value="struct event_loop *mainLoop;" style="text;strokeColor=none;fillColor=none;align=left;verticalAlign=top;spacingLeft=4;spacingRight=4;overflow=hidden;rotatable=0;points=[[0,0.5],[1,0.5]];portConstraint=eastwest;fontColor=#1D3557;" vertex="1" parent="137">
                    <mxGeometry y="26" width="280" height="26" as="geometry"/>
                </mxCell>
                <mxCell id="139" value="int started;" style="text;strokeColor=none;fillColor=none;align=left;verticalAlign=top;spacingLeft=4;spacingRight=4;overflow=hidden;rotatable=0;points=[[0,0.5],[1,0.5]];portConstraint=eastwest;fontColor=#1D3557;" vertex="1" parent="137">
                    <mxGeometry y="52" width="280" height="26" as="geometry"/>
                </mxCell>
                <mxCell id="143" value="int thread_number" style="text;strokeColor=none;fillColor=none;align=left;verticalAlign=top;spacingLeft=4;spacingRight=4;overflow=hidden;rotatable=0;points=[[0,0.5],[1,0.5]];portConstraint=eastwest;fontColor=#1D3557;" vertex="1" parent="137">
                    <mxGeometry y="78" width="280" height="26" as="geometry"/>
                </mxCell>
                <mxCell id="144" value="struct event_loop_thread *eventLoopThreads" style="text;strokeColor=none;fillColor=none;align=left;verticalAlign=top;spacingLeft=4;spacingRight=4;overflow=hidden;rotatable=0;points=[[0,0.5],[1,0.5]];portConstraint=eastwest;fontColor=#1D3557;" vertex="1" parent="137">
                    <mxGeometry y="104" width="280" height="26" as="geometry"/>
                </mxCell>
                <mxCell id="142" value="int position" style="text;strokeColor=none;fillColor=none;align=left;verticalAlign=top;spacingLeft=4;spacingRight=4;overflow=hidden;rotatable=0;points=[[0,0.5],[1,0.5]];portConstraint=eastwest;fontColor=#1D3557;" vertex="1" parent="137">
                    <mxGeometry y="130" width="280" height="26" as="geometry"/>
                </mxCell>
                <mxCell id="140" value="" style="line;strokeWidth=1;fillColor=none;align=left;verticalAlign=middle;spacingTop=-1;spacingLeft=3;spacingRight=3;rotatable=0;labelPosition=right;points=[];portConstraint=eastwest;labelBackgroundColor=#F1FAEE;strokeColor=#457B9D;fontColor=#1D3557;" vertex="1" parent="137">
                    <mxGeometry y="156" width="280" height="8" as="geometry"/>
                </mxCell>
                <mxCell id="145" value="struct thread_pool *thread_pool_new" style="text;strokeColor=none;fillColor=none;align=left;verticalAlign=top;spacingLeft=4;spacingRight=4;overflow=hidden;rotatable=0;points=[[0,0.5],[1,0.5]];portConstraint=eastwest;fontColor=#1D3557;" vertex="1" parent="137">
                    <mxGeometry y="164" width="280" height="26" as="geometry"/>
                </mxCell>
                <mxCell id="141" value="void thread_pool_start" style="text;strokeColor=none;fillColor=none;align=left;verticalAlign=top;spacingLeft=4;spacingRight=4;overflow=hidden;rotatable=0;points=[[0,0.5],[1,0.5]];portConstraint=eastwest;fontColor=#1D3557;" vertex="1" parent="137">
                    <mxGeometry y="190" width="280" height="26" as="geometry"/>
                </mxCell>
                <mxCell id="146" value="struct event_loop *thread_pool_get_loop" style="text;strokeColor=none;fillColor=none;align=left;verticalAlign=top;spacingLeft=4;spacingRight=4;overflow=hidden;rotatable=0;points=[[0,0.5],[1,0.5]];portConstraint=eastwest;fontColor=#1D3557;" vertex="1" parent="137">
                    <mxGeometry y="216" width="280" height="26" as="geometry"/>
                </mxCell>
                <mxCell id="147" value="" style="endArrow=diamondThin;endFill=1;endSize=24;html=1;entryX=0;entryY=0.5;entryDx=0;entryDy=0;exitX=0.5;exitY=0;exitDx=0;exitDy=0;labelBackgroundColor=#F1FAEE;strokeColor=#457B9D;fontColor=#1D3557;" edge="1" parent="1" source="132" target="28">
                    <mxGeometry width="160" relative="1" as="geometry">
                        <mxPoint x="-690" y="369.59000000000003" as="sourcePoint"/>
                        <mxPoint x="-600" y="329.9999999999999" as="targetPoint"/>
                    </mxGeometry>
                </mxCell>
                <mxCell id="149" value="" style="endArrow=diamondThin;endFill=1;endSize=24;html=1;entryX=-0.003;entryY=-0.026;entryDx=0;entryDy=0;entryPerimeter=0;exitX=1;exitY=0.5;exitDx=0;exitDy=0;labelBackgroundColor=#F1FAEE;strokeColor=#457B9D;fontColor=#1D3557;" edge="1" parent="1" source="143" target="28">
                    <mxGeometry width="160" relative="1" as="geometry">
                        <mxPoint x="-230" y="509.59000000000003" as="sourcePoint"/>
                        <mxPoint x="-140" y="469.9999999999999" as="targetPoint"/>
                    </mxGeometry>
                </mxCell>
                <mxCell id="151" value="Use" style="endArrow=open;endSize=12;dashed=1;html=1;entryX=-0.005;entryY=0;entryDx=0;entryDy=0;entryPerimeter=0;exitX=0.999;exitY=0.066;exitDx=0;exitDy=0;exitPerimeter=0;labelBackgroundColor=#F1FAEE;strokeColor=#457B9D;fontColor=#1D3557;" edge="1" parent="1" source="137" target="24">
                    <mxGeometry width="160" relative="1" as="geometry">
                        <mxPoint x="-330" y="-110" as="sourcePoint"/>
                        <mxPoint x="-170" y="-110" as="targetPoint"/>
                    </mxGeometry>
                </mxCell>
                <mxCell id="157" value="event_loop_thread" style="swimlane;fontStyle=1;align=center;verticalAlign=top;childLayout=stackLayout;horizontal=1;startSize=26;horizontalStack=0;resizeParent=1;resizeParentMax=0;resizeLast=0;collapsible=1;marginBottom=0;fillColor=#A8DADC;strokeColor=#457B9D;fontColor=#1D3557;" vertex="1" parent="1">
                    <mxGeometry x="-1280" y="198" width="280" height="242" as="geometry"/>
                </mxCell>
                <mxCell id="158" value="struct event_loop *eventLoop;" style="text;strokeColor=none;fillColor=none;align=left;verticalAlign=top;spacingLeft=4;spacingRight=4;overflow=hidden;rotatable=0;points=[[0,0.5],[1,0.5]];portConstraint=eastwest;fontColor=#1D3557;" vertex="1" parent="157">
                    <mxGeometry y="26" width="280" height="26" as="geometry"/>
                </mxCell>
                <mxCell id="159" value="pthread_t thread_tid" style="text;strokeColor=none;fillColor=none;align=left;verticalAlign=top;spacingLeft=4;spacingRight=4;overflow=hidden;rotatable=0;points=[[0,0.5],[1,0.5]];portConstraint=eastwest;fontColor=#1D3557;" vertex="1" parent="157">
                    <mxGeometry y="52" width="280" height="26" as="geometry"/>
                </mxCell>
                <mxCell id="160" value="pthread_mutex_t mutex;" style="text;strokeColor=none;fillColor=none;align=left;verticalAlign=top;spacingLeft=4;spacingRight=4;overflow=hidden;rotatable=0;points=[[0,0.5],[1,0.5]];portConstraint=eastwest;fontColor=#1D3557;" vertex="1" parent="157">
                    <mxGeometry y="78" width="280" height="26" as="geometry"/>
                </mxCell>
                <mxCell id="161" value="pthread_cond_t cond;" style="text;strokeColor=none;fillColor=none;align=left;verticalAlign=top;spacingLeft=4;spacingRight=4;overflow=hidden;rotatable=0;points=[[0,0.5],[1,0.5]];portConstraint=eastwest;fontColor=#1D3557;" vertex="1" parent="157">
                    <mxGeometry y="104" width="280" height="26" as="geometry"/>
                </mxCell>
                <mxCell id="167" value="char * thread_name;" style="text;strokeColor=none;fillColor=none;align=left;verticalAlign=top;spacingLeft=4;spacingRight=4;overflow=hidden;rotatable=0;points=[[0,0.5],[1,0.5]];portConstraint=eastwest;fontColor=#1D3557;" vertex="1" parent="157">
                    <mxGeometry y="130" width="280" height="26" as="geometry"/>
                </mxCell>
                <mxCell id="162" value="long thread_count" style="text;strokeColor=none;fillColor=none;align=left;verticalAlign=top;spacingLeft=4;spacingRight=4;overflow=hidden;rotatable=0;points=[[0,0.5],[1,0.5]];portConstraint=eastwest;fontColor=#1D3557;" vertex="1" parent="157">
                    <mxGeometry y="156" width="280" height="26" as="geometry"/>
                </mxCell>
                <mxCell id="163" value="" style="line;strokeWidth=1;fillColor=none;align=left;verticalAlign=middle;spacingTop=-1;spacingLeft=3;spacingRight=3;rotatable=0;labelPosition=right;points=[];portConstraint=eastwest;labelBackgroundColor=#F1FAEE;strokeColor=#457B9D;fontColor=#1D3557;" vertex="1" parent="157">
                    <mxGeometry y="182" width="280" height="8" as="geometry"/>
                </mxCell>
                <mxCell id="164" value="int event_loop_thread_init" style="text;strokeColor=none;fillColor=none;align=left;verticalAlign=top;spacingLeft=4;spacingRight=4;overflow=hidden;rotatable=0;points=[[0,0.5],[1,0.5]];portConstraint=eastwest;fontColor=#1D3557;" vertex="1" parent="157">
                    <mxGeometry y="190" width="280" height="26" as="geometry"/>
                </mxCell>
                <mxCell id="165" value="struct event_loop *event_loop_thread_start" style="text;strokeColor=none;fillColor=none;align=left;verticalAlign=top;spacingLeft=4;spacingRight=4;overflow=hidden;rotatable=0;points=[[0,0.5],[1,0.5]];portConstraint=eastwest;fontColor=#1D3557;" vertex="1" parent="157">
                    <mxGeometry y="216" width="280" height="26" as="geometry"/>
                </mxCell>
                <mxCell id="168" value="" style="endArrow=diamondThin;endFill=1;endSize=24;html=1;entryX=-0.004;entryY=0.695;entryDx=0;entryDy=0;entryPerimeter=0;exitX=1.005;exitY=0.804;exitDx=0;exitDy=0;exitPerimeter=0;labelBackgroundColor=#F1FAEE;strokeColor=#457B9D;fontColor=#1D3557;" edge="1" parent="1" source="160" target="144">
                    <mxGeometry width="160" relative="1" as="geometry">
                        <mxPoint x="-1210" y="130" as="sourcePoint"/>
                        <mxPoint x="-1050" y="130" as="targetPoint"/>
                    </mxGeometry>
                </mxCell>
                <mxCell id="34" value="Use" style="endArrow=open;endSize=12;dashed=1;html=1;entryX=0.491;entryY=1.185;entryDx=0;entryDy=0;exitX=0.5;exitY=0;exitDx=0;exitDy=0;entryPerimeter=0;labelBackgroundColor=#F1FAEE;strokeColor=#457B9D;fontColor=#1D3557;" edge="1" parent="1" source="6" target="76">
                    <mxGeometry width="160" relative="1" as="geometry">
                        <mxPoint x="320" y="180" as="sourcePoint"/>
                        <mxPoint x="480" y="180" as="targetPoint"/>
                    </mxGeometry>
                </mxCell>
                <mxCell id="169" value="Use" style="endArrow=open;endSize=12;dashed=1;html=1;exitX=0.5;exitY=0;exitDx=0;exitDy=0;labelBackgroundColor=#F1FAEE;strokeColor=#457B9D;fontColor=#1D3557;" edge="1" parent="1" source="157">
                    <mxGeometry width="160" relative="1" as="geometry">
                        <mxPoint x="-1030" y="-110" as="sourcePoint"/>
                        <mxPoint x="-170" y="-570" as="targetPoint"/>
                    </mxGeometry>
                </mxCell>
            </root>
        </mxGraphModel>
    </diagram>
</mxfile>